<svg xmlns="http://www.w3.org/2000/svg" viewBox="0 0 160 160">
  <rect width="160" height="160" rx="32" fill="#0a0a0a"/>
  <defs>
    <clipPath id="privance-maze-clip">
      <circle cx="80" cy="80" r="58"/>
    </clipPath>
  </defs>
  <circle cx="80" cy="80" r="58" fill="none" stroke="#e6d39a" stroke-width="3"/>
  <g stroke="#e6d39a" stroke-width="4" stroke-linecap="round">
    <line x1="80" y1="6" x2="80" y2="18"/>
    <line x1="154" y1="80" x2="142" y2="80"/>
    <line x1="80" y1="154" x2="80" y2="142"/>
    <line x1="6" y1="80" x2="18" y2="80"/>
  </g>
  <g stroke="#e6d39a" stroke-width="2.8" fill="none" stroke-linecap="square" clip-path="url(#privance-maze-clip)">
    <path d="M 40 48 L 105 48"/>
    <path d="M 105 48 L 105 65"/>
    <path d="M 55 65 L 120 65"/>
    <path d="M 55 65 L 55 90"/>
    <path d="M 55 90 L 105 90"/>
    <path d="M 35 82 L 35 108"/>
    <path d="M 80 90 L 80 108"/>
    <path d="M 105 90 L 105 115"/>
    <path d="M 55 108 L 105 108"/>
  </g>
  <circle cx="70" cy="78" r="8" fill="#e6d39a"/>
  <circle cx="70" cy="78" r="4.5" fill="#0a0a0a"/>
  <circle cx="70" cy="78" r="1.8" fill="#e6d39a"/>
</svg>
